700 0 1 0           
4 LibG 20 ASM 224.0.1.65535 NT 24 Fri Apr  5 17:01:47 2019 
1000 9.999999999999999547e-07 1.000000000000000036e-10 
body $-1 -1 $-1 $1 $-1 $2 #
lump $-1 -1 $-1 $-1 $3 $0 #
transform $-1 -1 1 0 0 0 1 0 0 0 1 0 0 0 1 no_rotate no_reflect no_shear #
shell $-1 -1 $-1 $-1 $-1 $4 $-1 $1 #
face $-1 -1 $-1 $-1 $5 $3 $-1 $6 forward double out #
loop $-1 -1 $-1 $-1 $7 $4 #
plane-surface $-1 -1 $-1 111.8088835201292852 134.9962006926006381 0 -0 -0 -1 -1 0 0 forward_v I I I I #
coedge $-1 -1 $-1 $8 $9 $-1 $10 forward $5 $-1 #
coedge $-1 -1 $-1 $11 $7 $-1 $12 forward $5 $-1 #
coedge $-1 -1 $-1 $7 $11 $-1 $13 forward $5 $-1 #
edge $-1 -1 $-1 $14 0 $15 303.551030246815003 $7 $16 forward @7 unknown #
coedge $-1 -1 $-1 $9 $8 $-1 $17 forward $5 $-1 #
edge $-1 -1 $-1 $15 0 $18 329.9218406058604387 $8 $19 forward @7 unknown #
edge $-1 -1 $-1 $20 0 $14 329.9218406058604387 $9 $21 forward @7 unknown #
vertex $-1 -1 $-1 $10 $22 #
vertex $-1 -1 $-1 $10 $23 #
intcurve-curve $-1 -1 $-1 forward { exactcur full nubs 3 open 2 
	0 3 303.551030246815003 3 
	-53.15203678280094834 -16.7793144308069202 0 
	-53.15203678280094834 84.40436231813141887 0 
	-53.15203678280094834 185.5880390670697011 0 
	-53.15203678280094834 286.7717158160080544 0 
	0 
	
	null_surface 
	null_surface 
	nullbs 
	nullbs 
	I I 
	0 
	0 
	0 
	F 1 F 0 } F 0 F 303.551030246815003 #
edge $-1 -1 $-1 $18 0 $20 303.551030246815003 $11 $24 forward @7 unknown #
vertex $-1 -1 $-1 $12 $25 #
intcurve-curve $-1 -1 $-1 forward { exactcur full nubs 3 open 2 
	0 3 329.9218406058604387 3 
	-53.15203678280094834 286.7717158160081112 0 
	56.82191008581919789 286.7717158160081112 0 
	166.7958569544393299 286.7717158160081112 0 
	276.7698038230594761 286.7717158160081112 0 
	0 
	
	null_surface 
	null_surface 
	nullbs 
	nullbs 
	I I 
	0 
	0 
	0 
	F 1 F 0 } F 0 F 329.9218406058604387 #
vertex $-1 -1 $-1 $17 $26 #
intcurve-curve $-1 -1 $-1 forward { exactcur full nubs 3 open 2 
	0 3 329.9218406058604387 3 
	276.7698038230594761 -16.7793144308069202 0 
	166.7958569544393299 -16.7793144308069202 0 
	56.82191008581918368 -16.7793144308069202 0 
	-53.15203678280096256 -16.7793144308069202 0 
	0 
	
	null_surface 
	null_surface 
	nullbs 
	nullbs 
	I I 
	0 
	0 
	0 
	F 1 F 0 } F 0 F 329.9218406058604387 #
point $-1 -1 $-1 -53.15203678280094834 -16.7793144308069202 0 #
point $-1 -1 $-1 -53.15203678280094834 286.7717158160080544 0 #
intcurve-curve $-1 -1 $-1 forward { exactcur full nubs 3 open 2 
	0 3 303.551030246815003 3 
	276.7698038230594761 286.7717158160081112 0 
	276.7698038230594761 185.5880390670697579 0 
	276.7698038230594761 84.4043623181314473 0 
	276.7698038230594761 -16.77931443080689178 0 
	0 
	
	null_surface 
	null_surface 
	nullbs 
	nullbs 
	I I 
	0 
	0 
	0 
	F 1 F 0 } F 0 F 303.551030246815003 #
point $-1 -1 $-1 276.7698038230594761 286.7717158160081112 0 #
point $-1 -1 $-1 276.7698038230594761 -16.77931443080689178 0 #
End-of-ACIS-data 